# xmcd
#
# Track frame offsets:
#	150
#	22963
#	40870
#	62880
#	86635
#	103720
#	124305
#	146665
#	165375
#	185655
#	205458
#	224885
#
# Disc length: 3308 seconds
#
# Revision: 1
# Processed by: cddbd v1.5.2PL0 Copyright (c) Steve Scherf et al.
# Submitted via: EZCDAudioConverter 8.0.2.1
#
DISCID=b80cea0c
DTITLE=Various Artist - Chansons D'Amour
DYEAR=1988
DGENRE=Pop
TTITLE0=Minh Phúc - Khi có chàng
TTITLE1=Minh Xuân, Minh Phúc - Những phút đầu tiên
TTITLE2=Julie - Trọn đời bên anh
TTITLE3=Minh Xuân, Minh Phúc - Đời cô đơn
TTITLE4=Tuấn Anh - Mr Schubert
TTITLE5=Trọng Nghĩa - Nào ai có biết
TTITLE6=Minh Xuân - Nhìn đời
TTITLE7=Minh Phúc, Billy Shan, Ngọc Lan - Giọt lệ buồn
TTITLE8=Jo Marcel, Julie - Mình Anh
TTITLE9=Ngọc Lan, Minh Phúc - Hãy vui đùa
TTITLE10=Julie, Minh Xuân - Anh là tất cả
TTITLE11=Minh Phúc - Vĩnh biệt người yêu
EXTD=
EXTT0=
EXTT1=
EXTT2=
EXTT3=
EXTT4=
EXTT5=
EXTT6=
EXTT7=
EXTT8=
EXTT9=
EXTT10=
EXTT11=
PLAYORDER=
